<?xml version="1.0" encoding="utf-8"?>
<!-- Generator: Adobe Illustrator 22.0.1, SVG Export Plug-In . SVG Version: 6.00 Build 0)  -->
<svg version="1.1" id="Warstwa_1" xmlns="http://www.w3.org/2000/svg" xmlns:xlink="http://www.w3.org/1999/xlink" x="0px" y="0px"
	 viewBox="0 0 31.1 30.9" enable-background="new 0 0 31.1 30.9" xml:space="preserve">
<g>
	<path fill="#758160" d="M22.3,19.5h-1.4L20.3,19c1.8-1.9,2.8-4.6,2.8-7.4c0-6.3-5.1-11.4-11.4-11.4S0.3,5.2,0.3,11.6
		C0.3,17.9,5.4,23,11.7,23c2.8,0,5.5-1,7.4-2.8l0.5,0.5v1.4l8.8,8.8l2.6-2.6L22.3,19.5z M11.7,19.5c-4.4,0-7.9-3.5-7.9-7.9
		c0-4.4,3.5-7.9,7.9-7.9c4.4,0,7.9,3.5,7.9,7.9C19.6,16,16.1,19.5,11.7,19.5L11.7,19.5z M11.7,19.5"/>
</g>
</svg>
